<?xml version="1.0" standalone="no"?>
<!DOCTYPE svg PUBLIC "-//W3C//DTD SVG 20010904//EN"
 "http://www.w3.org/TR/2001/REC-SVG-20010904/DTD/svg10.dtd">
<svg version="1.0" xmlns="http://www.w3.org/2000/svg"
 width="1582.000000pt" height="1582.000000pt" viewBox="0 0 1582.000000 1582.000000"
 preserveAspectRatio="xMidYMid meet">
<metadata>
Created by potrace 1.11, written by Peter Selinger 2001-2013
</metadata>
<g transform="translate(0.000000,1582.000000) scale(0.100000,-0.100000)"
fill="#000000" stroke="none">
<path d="M0 7910 l0 -7910 7910 0 7910 0 0 7910 0 7910 -7910 0 -7910 0 0
-7910z m13640 3590 c0 -6 30 -10 70 -10 40 0 70 -4 70 -10 0 -5 18 -10 40 -10
22 0 40 -4 40 -10 0 -5 18 -10 40 -10 22 0 40 -4 40 -10 0 -5 14 -10 30 -10
17 0 30 -4 30 -10 0 -5 14 -10 30 -10 17 0 30 -4 30 -10 0 -5 9 -10 20 -10 11
0 20 -4 20 -10 0 -5 14 -10 30 -10 17 0 30 -4 30 -10 0 -5 9 -10 20 -10 11 0
20 -4 20 -10 0 -5 9 -10 20 -10 11 0 20 -4 20 -10 0 -5 8 -10 18 -10 10 0 24
-9 32 -20 8 -11 22 -20 32 -20 10 0 18 -4 18 -10 0 -5 8 -10 18 -10 10 0 24
-9 32 -20 8 -11 21 -20 28 -20 8 0 27 -13 42 -30 15 -16 33 -30 40 -30 6 0 38
-27 70 -60 32 -33 64 -60 70 -60 14 0 100 -89 100 -102 0 -5 23 -31 50 -58 28
-27 50 -54 50 -60 0 -7 14 -25 30 -40 17 -15 30 -34 30 -42 0 -7 9 -20 20 -28
11 -8 20 -21 20 -30 0 -9 9 -22 20 -30 11 -8 20 -22 20 -32 0 -10 5 -18 10
-18 6 0 10 -7 10 -16 0 -8 5 -12 10 -9 6 3 10 -3 10 -14 0 -12 5 -21 10 -21 6
0 10 -9 10 -20 0 -11 5 -20 10 -20 6 0 10 -9 10 -20 0 -11 5 -20 10 -20 6 0
10 -9 10 -20 0 -11 5 -20 10 -20 6 0 10 -9 10 -20 0 -11 5 -20 10 -20 6 0 10
-13 10 -30 0 -16 5 -30 10 -30 6 0 10 -9 10 -20 0 -11 5 -20 10 -20 6 0 10
-13 10 -30 0 -16 5 -30 10 -30 6 0 10 -13 10 -30 0 -16 5 -30 10 -30 6 0 10
-13 10 -30 0 -16 5 -30 10 -30 6 0 10 -18 10 -40 0 -22 5 -40 10 -40 6 0 10
-18 10 -40 0 -22 5 -40 10 -40 6 0 10 -27 10 -60 0 -33 4 -60 10 -60 6 0 10
-13 10 -30 l0 -30 -120 0 c-113 0 -120 1 -120 20 0 11 -4 20 -10 20 -5 0 -10
23 -10 50 0 28 -4 50 -10 50 -5 0 -10 18 -10 40 0 22 -4 40 -10 40 -5 0 -10
18 -10 40 0 22 -4 40 -10 40 -5 0 -10 14 -10 30 0 17 -4 30 -10 30 -5 0 -10
14 -10 30 0 17 -4 30 -10 30 -5 0 -10 9 -10 20 0 11 -4 20 -10 20 -5 0 -10 14
-10 30 0 17 -4 30 -10 30 -5 0 -10 9 -10 20 0 11 -4 20 -10 20 -5 0 -10 9 -10
20 0 11 -4 20 -10 20 -5 0 -10 9 -10 20 0 11 -4 20 -10 20 -5 0 -10 9 -10 20
0 11 -4 20 -10 20 -5 0 -10 8 -10 18 0 10 -9 24 -20 32 -11 8 -20 21 -20 30 0
9 -9 22 -20 30 -11 8 -20 21 -20 30 0 9 -9 22 -20 30 -11 8 -20 20 -20 28 0 7
-22 35 -50 62 -27 27 -50 54 -50 60 0 14 -126 140 -141 140 -6 0 -28 18 -49
40 -21 22 -44 40 -50 40 -7 0 -25 14 -40 30 -15 17 -35 30 -44 30 -9 0 -16 5
-16 10 0 6 -8 10 -18 10 -10 0 -24 9 -32 20 -8 11 -22 20 -32 20 -10 0 -18 5
-18 10 0 6 -9 10 -20 10 -11 0 -20 5 -20 10 0 6 -9 10 -20 10 -11 0 -20 5 -20
10 0 6 -13 10 -30 10 -16 0 -30 5 -30 10 0 6 -9 10 -20 10 -11 0 -20 5 -20 10
0 6 -13 10 -30 10 -16 0 -30 5 -30 10 0 6 -13 10 -30 10 -16 0 -30 5 -30 10 0
6 -18 10 -40 10 -22 0 -40 5 -40 10 0 6 -27 10 -60 10 -33 0 -60 4 -60 10 0 6
-63 10 -170 10 -107 0 -170 -4 -170 -10 0 -5 -13 -10 -30 -10 l-30 0 0 120 0
120 30 0 c17 0 30 5 30 10 0 6 63 10 170 10 107 0 170 -4 170 -10z m20 -420
c0 -6 27 -10 60 -10 33 0 60 -4 60 -10 0 -5 14 -10 30 -10 17 0 30 -4 30 -10
0 -5 14 -10 30 -10 17 0 30 -4 30 -10 0 -5 14 -10 30 -10 17 0 30 -4 30 -10 0
-5 9 -10 20 -10 11 0 20 -4 20 -10 0 -5 9 -10 20 -10 11 0 20 -4 20 -10 0 -5
9 -10 20 -10 11 0 20 -4 20 -10 0 -5 9 -10 20 -10 11 0 20 -4 20 -10 0 -5 9
-10 20 -10 11 0 20 -4 20 -10 0 -5 6 -10 13 -10 7 0 23 -9 35 -20 12 -11 26
-20 32 -20 7 0 29 -18 50 -40 21 -22 43 -40 49 -40 15 0 201 -186 201 -201 0
-6 14 -24 30 -39 17 -15 30 -33 30 -39 0 -6 14 -25 30 -43 17 -17 30 -37 30
-44 0 -8 5 -14 10 -14 6 0 10 -8 10 -18 0 -10 9 -24 20 -32 11 -8 20 -22 20
-32 0 -10 5 -18 10 -18 6 0 10 -9 10 -20 0 -11 5 -20 10 -20 6 0 10 -9 10 -20
0 -11 5 -20 10 -20 6 0 10 -13 10 -30 0 -16 5 -30 10 -30 6 0 10 -9 10 -20 0
-11 5 -20 10 -20 6 0 10 -13 10 -30 0 -16 5 -30 10 -30 6 0 10 -13 10 -30 0
-16 5 -30 10 -30 6 0 10 -13 10 -30 0 -16 5 -30 10 -30 6 0 10 -18 10 -40 0
-22 5 -40 10 -40 6 0 10 -22 10 -50 l0 -50 -120 0 -120 0 0 30 c0 17 -4 30
-10 30 -5 0 -10 18 -10 40 0 22 -4 40 -10 40 -5 0 -10 13 -10 29 0 17 -4 33
-10 36 -5 3 -10 17 -10 31 0 13 -4 24 -10 24 -5 0 -10 14 -10 30 0 17 -4 30
-10 30 -5 0 -10 9 -10 20 0 11 -4 20 -10 20 -5 0 -10 9 -10 20 0 11 -4 20 -10
20 -5 0 -10 9 -10 20 0 11 -4 20 -10 20 -5 0 -10 8 -10 18 0 10 -9 24 -20 32
-11 8 -20 21 -20 30 0 9 -9 22 -20 30 -11 8 -20 21 -20 28 0 8 -12 26 -27 41
-16 14 -29 32 -31 39 -3 17 -189 202 -203 202 -6 0 -24 14 -39 30 -15 17 -35
30 -44 30 -9 0 -16 5 -16 10 0 6 -8 10 -18 10 -10 0 -24 9 -32 20 -8 11 -22
20 -32 20 -10 0 -18 5 -18 10 0 6 -9 10 -20 10 -11 0 -20 5 -20 10 0 6 -13 10
-30 10 -16 0 -30 5 -30 10 0 6 -13 10 -30 10 -16 0 -30 5 -30 10 0 6 -13 10
-30 10 -16 0 -30 5 -30 10 0 6 -18 10 -40 10 -22 0 -40 5 -40 10 0 16 -377 13
-382 -2 -3 -9 -9 -8 -21 4 -25 25 -25 215 1 234 21 17 402 20 402 4z m-40
-460 c0 -5 23 -10 50 -10 28 0 50 -4 50 -10 0 -5 14 -10 30 -10 17 0 30 -4 30
-10 0 -5 14 -10 30 -10 17 0 30 -4 30 -10 0 -5 9 -10 20 -10 11 0 20 -4 20
-10 0 -5 9 -10 20 -10 11 0 20 -4 20 -10 0 -5 8 -10 18 -10 10 0 24 -9 32 -20
8 -11 21 -20 30 -20 9 0 22 -9 30 -20 8 -11 20 -20 27 -20 16 0 203 -185 203
-201 0 -6 14 -24 30 -39 17 -15 30 -35 30 -44 0 -9 5 -16 10 -16 6 0 10 -8 10
-18 0 -10 9 -24 20 -32 11 -8 20 -22 20 -32 0 -10 5 -18 10 -18 6 0 10 -9 10
-19 0 -11 5 -23 10 -26 6 -3 10 -17 10 -31 0 -13 5 -24 10 -24 6 0 10 -9 10
-20 0 -11 5 -20 10 -20 6 0 10 -18 10 -40 0 -22 5 -40 10 -40 6 0 10 -13 10
-30 l0 -30 -120 0 c-113 0 -120 1 -120 20 0 11 -4 20 -10 20 -5 0 -10 9 -10
20 0 11 -4 20 -10 20 -5 0 -10 14 -10 30 0 17 -4 30 -10 30 -5 0 -10 9 -10 20
0 11 -4 20 -10 20 -5 0 -10 8 -10 18 0 10 -9 24 -20 32 -11 8 -20 21 -20 30 0
9 -9 22 -20 30 -11 8 -20 20 -20 27 0 17 -166 183 -183 183 -7 0 -19 9 -27 20
-8 11 -22 20 -32 20 -10 0 -18 5 -18 10 0 6 -9 10 -20 10 -11 0 -20 5 -20 10
0 6 -9 10 -20 10 -11 0 -20 5 -20 10 0 6 -13 10 -30 10 -16 0 -30 5 -30 10 0
6 -18 10 -40 10 -22 0 -40 5 -40 10 0 6 -50 10 -130 10 -80 0 -130 -4 -130
-10 0 -5 -22 -10 -50 -10 l-50 0 0 120 0 120 40 0 c22 0 40 5 40 10 0 6 57 10
150 10 93 0 150 -4 150 -10z m-10794 -584 c8 -8 14 -26 14 -40 0 -14 5 -26 10
-26 6 0 10 -13 10 -30 0 -16 5 -30 10 -30 6 0 10 -13 10 -29 0 -17 5 -33 10
-36 6 -3 10 -17 10 -30 0 -13 5 -27 10 -30 6 -3 10 -22 10 -41 0 -19 5 -34 10
-34 6 0 10 -13 10 -30 0 -16 5 -30 10 -30 6 0 10 -13 10 -30 0 -16 5 -30 10
-30 6 0 10 -13 10 -30 0 -16 5 -30 10 -30 6 0 10 -13 10 -30 0 -16 5 -30 10
-30 6 0 10 -13 10 -30 0 -16 4 -30 8 -30 4 0 9 -12 10 -27 1 -15 7 -32 12 -37
6 -6 10 -25 10 -43 0 -18 5 -33 10 -33 6 0 10 -13 10 -30 0 -16 5 -30 10 -30
6 0 10 -13 10 -30 0 -16 5 -30 10 -30 6 0 10 -13 10 -30 0 -16 5 -30 10 -30 6
0 10 -13 10 -30 0 -16 5 -30 10 -30 6 0 10 -13 10 -30 0 -16 5 -30 10 -30 6 0
10 -13 10 -29 0 -17 5 -33 10 -36 6 -3 10 -19 10 -36 0 -16 5 -29 10 -29 6 0
10 -16 10 -35 0 -19 5 -35 10 -35 6 0 10 -13 10 -30 0 -16 5 -30 10 -30 6 0
10 -13 10 -30 0 -16 5 -30 10 -30 6 0 10 -13 10 -30 0 -16 5 -30 10 -30 6 0
10 -13 10 -30 0 -16 5 -30 10 -30 6 0 10 -13 10 -30 0 -16 5 -30 10 -30 6 0
10 -16 10 -36 0 -19 4 -33 8 -30 4 2 9 -12 10 -32 2 -20 7 -38 12 -40 6 -2 10
-17 10 -33 0 -16 5 -29 10 -29 6 0 10 -13 10 -30 0 -16 5 -30 10 -30 6 0 10
-13 10 -30 0 -16 5 -30 10 -30 6 0 10 -13 10 -30 0 -16 5 -30 10 -30 6 0 10
-13 10 -30 0 -16 5 -30 10 -30 6 0 10 -13 10 -30 0 -16 5 -30 10 -30 6 0 10
-15 10 -34 0 -19 5 -38 10 -41 6 -3 10 3 10 14 0 12 5 21 10 21 6 0 10 18 10
40 0 22 5 40 10 40 6 0 10 11 10 24 0 14 4 28 10 31 6 3 10 19 10 36 0 16 5
29 10 29 6 0 10 14 10 30 0 17 5 30 10 30 6 0 10 14 10 30 0 17 5 30 10 30 6
0 10 14 10 30 0 17 5 30 10 30 6 0 10 14 10 30 0 17 5 30 10 30 6 0 10 18 10
40 0 22 5 40 10 40 6 0 10 11 10 24 0 14 4 28 10 31 5 3 10 19 10 36 0 16 5
29 10 29 6 0 10 14 10 30 0 17 5 30 10 30 6 0 10 14 10 30 0 17 5 30 10 30 6
0 10 14 10 30 0 17 5 30 10 30 6 0 10 14 10 30 0 17 5 30 10 30 6 0 10 15 10
34 0 19 5 38 10 41 6 3 10 19 10 36 0 16 5 29 10 29 6 0 10 14 10 30 0 17 5
30 10 30 6 0 10 14 10 30 0 17 5 30 10 30 6 0 10 14 10 30 0 17 5 30 10 30 6
0 10 14 10 30 0 17 5 30 10 30 6 0 10 14 10 30 0 17 5 30 10 30 6 0 10 14 10
30 0 17 5 30 13 30 8 0 7 4 -3 10 -10 6 -11 10 -2 10 7 0 12 13 12 30 0 17 5
30 10 30 6 0 10 14 10 30 0 17 5 30 10 30 6 0 10 14 10 30 0 17 5 30 10 30 6
0 10 14 10 30 0 17 5 30 10 30 6 0 10 14 10 30 0 17 5 30 10 30 6 0 10 14 10
30 0 17 5 30 10 30 6 0 10 18 10 40 0 22 5 40 10 40 6 0 10 14 10 30 0 17 5
30 10 30 6 0 10 14 10 30 0 17 5 30 10 30 6 0 10 14 10 30 0 17 5 30 10 30 6
0 10 14 10 30 0 17 5 30 10 30 6 0 10 9 10 20 0 20 7 20 2150 20 1427 0 2150
-3 2150 -10 0 -6 33 -10 80 -10 47 0 80 -4 80 -10 0 -6 27 -10 60 -10 33 0 60
-4 60 -10 0 -5 18 -10 40 -10 22 0 40 -4 40 -10 0 -5 18 -10 40 -10 22 0 40
-4 40 -10 0 -5 18 -10 40 -10 22 0 40 -4 40 -10 0 -5 9 -10 20 -10 11 0 20 -4
20 -10 0 -5 14 -10 30 -10 17 0 30 -4 30 -10 0 -5 9 -10 20 -10 11 0 20 -4 20
-10 0 -5 14 -10 30 -10 17 0 30 -4 30 -10 0 -5 9 -10 20 -10 11 0 20 -4 20
-10 0 -5 9 -10 20 -10 11 0 20 -4 20 -10 0 -5 8 -10 18 -10 10 0 24 -9 32 -20
8 -11 22 -20 32 -20 10 0 18 -4 18 -10 0 -5 7 -10 16 -10 9 0 29 -13 44 -30
15 -16 33 -30 40 -30 7 0 25 -13 40 -30 15 -16 33 -30 39 -30 15 0 161 -146
161 -161 0 -6 18 -28 40 -49 22 -21 40 -45 40 -52 0 -7 9 -20 20 -28 11 -8 20
-21 20 -30 0 -9 9 -22 20 -30 11 -8 20 -22 20 -32 0 -10 5 -18 10 -18 7 0 10
143 10 410 l0 410 1435 0 c950 0 1435 -3 1435 -10 0 -6 38 -10 95 -10 57 0 95
-4 95 -10 0 -6 27 -10 60 -10 33 0 60 -4 60 -10 0 -5 23 -10 50 -10 28 0 50
-4 50 -10 0 -5 18 -10 40 -10 22 0 40 -4 40 -10 0 -5 14 -10 30 -10 17 0 30
-4 30 -10 0 -5 9 -10 20 -10 11 0 20 -4 20 -10 0 -5 14 -10 30 -10 17 0 30 -4
30 -10 0 -5 9 -10 20 -10 11 0 20 -4 20 -10 0 -5 9 -10 20 -10 11 0 20 -4 20
-10 0 -5 9 -10 21 -10 11 0 17 -4 14 -10 -3 -5 1 -10 9 -10 9 0 16 -4 16 -10
0 -5 7 -10 16 -10 8 0 33 -18 54 -40 21 -22 44 -40 50 -40 13 0 80 -69 80 -82
0 -4 18 -27 40 -49 22 -23 40 -48 40 -55 0 -8 5 -14 10 -14 6 0 10 -9 10 -20
0 -11 5 -20 10 -20 6 0 10 -9 10 -21 0 -11 5 -17 10 -14 6 4 10 -5 10 -19 0
-14 5 -26 10 -26 6 0 10 -11 10 -24 0 -14 4 -28 10 -31 5 -3 10 -19 10 -36 0
-16 5 -29 10 -29 6 0 10 -22 10 -50 0 -27 5 -50 10 -50 6 0 10 -53 10 -140 0
-87 -4 -140 -10 -140 -6 0 -10 -28 -10 -62 0 -45 -3 -59 -10 -48 -7 11 -10 4
-10 -27 0 -24 -4 -43 -10 -43 -5 0 -10 -9 -10 -20 0 -11 -4 -20 -8 -20 -4 0
-8 -10 -9 -22 -1 -11 -6 -24 -11 -27 -5 -3 -15 -21 -23 -38 -8 -18 -17 -33
-21 -33 -5 0 -8 -6 -8 -14 0 -7 -14 -27 -30 -44 -17 -18 -30 -37 -30 -42 0 -6
-5 -8 -10 -5 -6 3 -10 -1 -10 -10 0 -18 -83 -105 -101 -105 -6 0 -28 -18 -49
-40 -21 -22 -46 -40 -54 -40 -9 0 -16 -4 -16 -10 0 -5 -8 -10 -18 -10 -10 0
-24 -9 -32 -20 -8 -11 -22 -20 -32 -20 -10 0 -18 -4 -18 -10 0 -5 -9 -10 -20
-10 -11 0 -20 -4 -20 -10 0 -5 -9 -10 -20 -10 -11 0 -20 -4 -20 -10 0 -5 -9
-10 -20 -10 -11 0 -20 -4 -20 -10 0 -5 -13 -10 -30 -10 -16 0 -30 -4 -30 -10
0 -5 -13 -10 -30 -10 -16 0 -30 -4 -30 -10 0 -5 -13 -10 -30 -10 -16 0 -30 -4
-30 -10 0 -5 -18 -10 -40 -10 -22 0 -40 -4 -40 -10 0 -5 -16 -10 -36 -10 -31
0 -64 -18 -64 -34 0 -3 14 -6 30 -6 17 0 30 -4 30 -10 0 -5 14 -10 30 -10 17
0 30 -4 30 -10 0 -5 14 -10 30 -10 17 0 30 -4 30 -10 0 -5 9 -10 20 -10 11 0
20 -4 20 -10 0 -5 9 -10 20 -10 11 0 20 -4 20 -10 0 -5 9 -10 20 -10 11 0 20
-4 20 -10 0 -5 7 -10 15 -10 18 0 365 -345 365 -363 0 -7 9 -19 20 -27 11 -8
20 -21 20 -30 0 -9 9 -22 20 -30 11 -8 20 -21 20 -30 0 -9 9 -22 20 -30 11 -8
20 -21 20 -30 0 -9 9 -22 20 -30 11 -8 20 -20 20 -28 0 -7 9 -22 20 -34 11
-12 20 -28 20 -35 0 -7 5 -13 10 -13 6 0 10 -8 10 -18 0 -10 9 -24 20 -32 11
-8 20 -21 20 -30 0 -9 9 -22 20 -30 11 -8 20 -21 20 -30 0 -9 9 -22 20 -30 11
-8 20 -22 20 -32 0 -10 5 -18 10 -18 6 0 10 -7 10 -15 0 -8 5 -15 10 -15 6 0
10 -7 10 -15 0 -8 5 -15 10 -15 6 0 10 -8 10 -18 0 -10 9 -24 20 -32 11 -8 20
-21 20 -30 0 -9 9 -22 20 -30 11 -8 20 -21 20 -30 0 -9 9 -22 20 -30 11 -8 20
-22 20 -32 0 -10 5 -18 10 -18 6 0 10 -8 10 -18 0 -10 9 -24 20 -32 11 -8 20
-21 20 -30 0 -9 9 -22 20 -30 11 -8 20 -21 20 -30 0 -9 9 -22 20 -30 11 -8 20
-21 20 -30 0 -9 9 -22 20 -30 14 -10 16 -16 7 -22 -9 -6 -9 -8 1 -8 6 0 12 -4
12 -10 0 -7 -268 -10 -785 -10 l-786 0 -24 25 c-14 13 -25 30 -25 37 0 8 -9
20 -20 28 -11 8 -20 20 -20 27 0 7 -4 13 -10 13 -5 0 -10 7 -10 15 0 8 -4 15
-10 15 -5 0 -10 6 -10 13 0 7 -9 23 -20 35 -11 12 -20 26 -20 32 0 5 -4 10
-10 10 -5 0 -10 7 -10 15 0 8 -4 15 -10 15 -5 0 -10 7 -10 15 0 8 -4 15 -10
15 -5 0 -10 7 -10 15 0 8 -4 15 -10 15 -5 0 -10 7 -10 16 0 9 -5 12 -12 8 -6
-4 -8 -3 -4 4 3 6 -5 22 -19 36 -14 14 -25 31 -25 38 0 8 -9 20 -20 28 -11 8
-20 21 -20 30 0 9 -9 22 -20 30 -11 8 -20 21 -20 30 0 9 -9 22 -20 30 -11 8
-20 21 -20 30 0 9 -9 22 -20 30 -11 8 -20 21 -20 30 0 9 -9 22 -20 30 -11 8
-20 21 -20 30 0 9 -9 22 -20 30 -11 8 -20 21 -20 30 0 9 -9 22 -20 30 -11 8
-20 21 -20 30 0 9 -9 22 -20 30 -11 8 -20 21 -20 30 0 9 -9 22 -20 30 -11 8
-20 21 -20 30 0 9 -9 22 -20 30 -11 8 -20 21 -20 30 0 9 -9 22 -20 30 -11 8
-20 21 -20 29 0 7 -9 21 -19 30 -11 10 -21 24 -23 31 -2 8 -20 31 -40 51 -21
21 -38 42 -38 48 0 17 -87 101 -105 101 -8 0 -15 5 -15 10 0 6 -7 10 -15 10
-8 0 -15 5 -15 10 0 6 -7 10 -15 10 -8 0 -15 5 -15 10 0 6 -13 10 -30 10 -16
0 -30 5 -30 10 0 6 -18 10 -40 10 -22 0 -40 5 -40 10 0 6 -50 10 -130 10
l-130 0 0 -730 0 -730 -710 0 -710 0 0 400 c0 220 -3 400 -6 400 -11 0 -34
-29 -34 -42 0 -8 -9 -20 -20 -28 -11 -8 -20 -20 -20 -28 0 -7 -27 -40 -60 -72
-33 -32 -60 -64 -60 -70 0 -14 -46 -60 -60 -60 -6 0 -38 -27 -70 -60 -32 -33
-65 -60 -72 -60 -8 0 -20 -9 -28 -20 -8 -11 -21 -20 -30 -20 -9 0 -22 -9 -30
-20 -8 -11 -22 -20 -32 -20 -10 0 -18 -4 -18 -10 0 -5 -8 -10 -18 -10 -10 0
-24 -9 -32 -20 -8 -11 -22 -20 -32 -20 -10 0 -18 -4 -18 -10 0 -5 -9 -10 -20
-10 -11 0 -20 -4 -20 -10 0 -5 -9 -10 -20 -10 -11 0 -20 -4 -20 -10 0 -5 -13
-10 -30 -10 -16 0 -30 -4 -30 -10 0 -5 -9 -10 -20 -10 -11 0 -20 -4 -20 -10 0
-5 -13 -10 -30 -10 -16 0 -30 -4 -30 -10 0 -5 -18 -10 -40 -10 -22 0 -40 -4
-40 -10 0 -5 -18 -10 -40 -10 -22 0 -40 -4 -40 -10 0 -5 -22 -10 -50 -10 -27
0 -50 -4 -50 -10 0 -6 -27 -10 -60 -10 -33 0 -60 -4 -60 -10 0 -6 -27 -10 -60
-10 -33 0 -60 -4 -60 -10 0 -6 -37 -10 -90 -10 -53 0 -90 -4 -90 -10 0 -7
-587 -10 -1740 -10 l-1740 0 0 1320 c0 873 -3 1320 -10 1320 -5 0 -10 -13 -10
-30 0 -16 -4 -30 -10 -30 -5 0 -10 -10 -10 -22 0 -23 -16 -81 -31 -110 -5 -10
-9 -29 -9 -43 0 -14 -4 -25 -10 -25 -5 0 -10 -13 -10 -30 0 -16 -4 -30 -10
-30 -5 0 -10 -13 -10 -30 0 -16 -4 -30 -10 -30 -5 0 -10 -13 -10 -30 0 -16 -4
-30 -10 -30 -5 0 -10 -13 -10 -30 0 -16 -4 -30 -10 -30 -5 0 -10 -15 -10 -34
0 -19 -4 -38 -10 -41 -6 -3 -10 -19 -10 -36 0 -16 -4 -29 -10 -29 -5 0 -10
-13 -10 -30 0 -16 -4 -30 -10 -30 -5 0 -10 -13 -10 -30 0 -16 -4 -30 -10 -30
-5 0 -10 -13 -10 -30 0 -16 -4 -30 -10 -30 -5 0 -10 -13 -10 -30 0 -16 -4 -30
-10 -30 -5 0 -10 -13 -10 -29 0 -16 -4 -31 -10 -33 -5 -1 -10 -20 -12 -40 -1
-20 -6 -34 -10 -32 -4 3 -8 -9 -8 -25 0 -17 -4 -31 -10 -31 -5 0 -10 -16 -10
-35 0 -19 -4 -35 -10 -35 -5 0 -10 -13 -10 -30 0 -16 -4 -30 -10 -30 -5 0 -10
-13 -10 -30 0 -16 -4 -30 -10 -30 -5 0 -10 -13 -10 -30 0 -16 -4 -30 -10 -30
-5 0 -10 -13 -10 -30 0 -16 -4 -30 -10 -30 -5 0 -10 -18 -10 -40 0 -22 -4 -40
-10 -40 -5 0 -10 -13 -10 -30 0 -16 -4 -30 -10 -30 -5 0 -10 -13 -10 -30 0
-16 -4 -30 -10 -30 -5 0 -10 -13 -10 -30 0 -16 -4 -30 -10 -30 -5 0 -10 -13
-10 -30 0 -16 -4 -30 -10 -30 -5 0 -10 -13 -10 -30 0 -16 -4 -30 -10 -30 -5 0
-10 -18 -10 -40 0 -22 -4 -40 -10 -40 -5 0 -10 -11 -10 -24 0 -14 -4 -28 -10
-31 -6 -3 -10 -19 -10 -36 0 -16 -4 -29 -10 -29 -5 0 -10 -13 -10 -30 0 -16
-4 -30 -10 -30 -5 0 -10 -13 -10 -30 0 -16 -4 -30 -10 -30 -5 0 -10 -13 -10
-30 0 -16 -4 -30 -10 -30 -5 0 -10 -13 -10 -30 0 -16 -4 -30 -10 -30 -5 0 -10
-18 -10 -40 0 -22 -4 -40 -10 -40 -5 0 -10 -11 -10 -24 0 -14 -4 -28 -10 -31
-6 -3 -10 -19 -10 -36 0 -16 -4 -29 -10 -29 -5 0 -10 -13 -10 -30 0 -16 -4
-30 -10 -30 -5 0 -10 -13 -10 -30 0 -16 -4 -30 -10 -30 -5 0 -10 -13 -10 -30
0 -16 -4 -30 -10 -30 -5 0 -10 -13 -10 -30 l0 -30 -530 0 -530 0 0 30 c0 17
-4 30 -10 30 -5 0 -10 14 -10 30 0 17 -4 30 -10 30 -5 0 -10 14 -10 30 0 17
-4 30 -10 30 -5 0 -10 14 -10 30 0 17 -4 30 -10 30 -5 0 -10 14 -10 30 0 17
-4 30 -10 30 -5 0 -10 14 -10 30 0 17 -4 30 -10 30 -5 0 -10 18 -10 40 0 22
-4 40 -10 40 -5 0 -10 14 -10 30 0 17 -4 30 -10 30 -5 0 -10 14 -10 30 0 17
-4 30 -10 30 -5 0 -10 14 -10 30 0 17 -4 30 -10 30 -5 0 -10 14 -10 30 0 17
-4 30 -10 30 -5 0 -10 14 -10 30 0 17 -4 30 -10 30 -5 0 -10 14 -10 30 0 17
-4 30 -8 30 -4 0 -9 17 -10 38 -2 20 -7 39 -12 40 -6 2 -10 17 -10 33 0 16 -4
29 -10 29 -5 0 -10 14 -10 30 0 17 -4 30 -10 30 -5 0 -10 14 -10 30 0 17 -4
30 -10 30 -5 0 -10 13 -10 29 0 17 -4 33 -10 36 -5 3 -10 17 -10 31 0 13 -4
24 -10 24 -5 0 -10 18 -10 40 0 22 -4 40 -10 40 -5 0 -10 14 -10 30 0 17 -4
30 -10 30 -5 0 -10 14 -10 30 0 17 -4 30 -10 30 -5 0 -10 14 -10 30 0 17 -4
30 -10 30 -5 0 -10 14 -10 30 0 17 -4 30 -10 30 -5 0 -10 14 -10 30 0 17 -4
30 -8 30 -4 0 -9 17 -10 38 -2 20 -7 39 -12 40 -6 2 -10 17 -10 33 0 16 -4 29
-10 29 -5 0 -10 14 -10 30 0 17 -4 30 -10 30 -5 0 -10 14 -10 30 0 17 -4 30
-10 30 -5 0 -10 14 -10 30 0 17 -4 30 -10 30 -5 0 -10 13 -10 29 0 17 -4 33
-10 36 -5 3 -10 17 -10 31 0 13 -4 24 -10 24 -5 0 -10 18 -10 40 0 22 -4 40
-10 40 -5 0 -10 14 -10 30 0 17 -4 30 -10 30 -5 0 -10 14 -10 30 0 17 -4 30
-10 30 -5 0 -10 14 -10 30 0 17 -4 30 -10 30 -5 0 -10 14 -10 30 0 17 -4 30
-8 30 -4 0 -9 12 -10 28 -1 15 -7 29 -12 30 -6 2 -10 21 -10 43 0 21 -4 39
-10 39 -5 0 -10 14 -10 30 0 17 -4 30 -10 30 -5 0 -10 14 -10 30 0 17 -4 30
-10 30 -5 0 -10 14 -10 30 0 17 -4 30 -10 30 -7 0 -10 -447 -10 -1320 l0
-1320 -580 0 -580 0 0 1810 0 1810 916 0 c780 0 918 -2 930 -14z m-1486 -4176
c0 -16 5 -30 10 -30 6 0 10 -9 10 -20 0 -11 5 -20 10 -20 6 0 10 -13 10 -29 0
-17 5 -33 10 -36 6 -3 10 -17 10 -31 0 -13 5 -24 10 -24 6 0 10 -13 10 -30 0
-16 5 -30 10 -30 6 0 10 -13 10 -30 0 -16 5 -30 10 -30 6 0 10 -13 10 -30 0
-16 5 -30 10 -30 6 0 10 -13 10 -30 0 -16 5 -30 10 -30 6 0 10 -13 10 -30 0
-16 5 -30 10 -30 6 0 10 -13 10 -30 0 -16 5 -30 10 -30 6 0 10 -13 10 -30 0
-16 5 -30 11 -30 5 0 7 -4 4 -10 -3 -5 1 -10 9 -10 12 0 16 10 16 36 0 21 4
33 10 29 9 -5 16 40 11 68 -1 5 3 6 9 2 6 -4 10 6 10 24 0 16 5 33 10 36 6 3
10 15 10 26 0 10 5 19 10 19 6 0 10 14 10 30 0 17 5 30 10 30 6 0 10 14 10 30
0 17 5 30 10 30 6 0 10 14 10 30 0 17 5 30 10 30 6 0 10 9 10 20 0 11 5 20 10
20 6 0 10 14 10 30 0 17 5 30 10 30 6 0 10 14 10 30 0 17 5 30 10 30 6 0 10 9
10 20 0 11 5 20 10 20 6 0 10 9 10 20 0 19 5 21 78 18 l77 -3 3 -87 c1 -49 7
-88 12 -88 6 0 10 -64 10 -160 0 -100 4 -160 10 -160 6 0 10 -60 10 -160 0
-100 4 -160 10 -160 6 0 10 -13 10 -30 l0 -30 -70 0 -70 0 0 120 c0 73 -4 120
-10 120 -6 0 -10 77 -10 210 0 116 -3 210 -6 210 -14 0 -34 -31 -34 -54 0 -14
-4 -26 -10 -26 -5 0 -10 -13 -10 -30 0 -16 -4 -30 -10 -30 -5 0 -10 -13 -10
-30 0 -16 -4 -30 -10 -30 -5 0 -10 -13 -10 -30 0 -16 -4 -30 -10 -30 -5 0 -10
-13 -10 -30 0 -16 -4 -30 -10 -30 -5 0 -10 -9 -10 -20 0 -11 -4 -20 -10 -20
-5 0 -10 -13 -10 -30 0 -16 -4 -30 -10 -30 -5 0 -10 -13 -10 -30 0 -16 -4 -30
-10 -30 -5 0 -10 -11 -10 -24 0 -14 -4 -28 -10 -31 -5 -3 -10 -15 -10 -26 0
-10 -4 -19 -10 -19 -5 0 -10 -12 -10 -26 0 -38 -22 -54 -74 -54 -39 0 -46 3
-46 20 0 11 -4 20 -10 20 -5 0 -10 14 -10 30 0 17 -4 30 -10 30 -5 0 -10 14
-10 30 0 17 -4 30 -10 30 -5 0 -10 9 -10 20 0 11 -4 20 -10 20 -5 0 -10 9 -10
20 0 28 -23 100 -32 100 -5 0 -8 14 -8 30 0 17 -4 30 -10 30 -5 0 -10 14 -10
30 0 17 -4 30 -10 30 -5 0 -10 14 -10 30 0 17 -5 30 -12 30 -9 0 -8 4 2 10 10
6 11 10 3 10 -8 0 -13 13 -13 30 0 17 -4 30 -10 30 -5 0 -10 14 -10 30 0 17
-4 30 -10 30 -6 0 -10 -27 -10 -60 0 -33 -4 -60 -10 -60 -6 0 -10 -63 -10
-170 0 -107 -4 -170 -10 -170 -6 0 -10 -37 -10 -90 l0 -90 -60 0 -61 0 2 130
c0 74 5 127 10 124 5 -3 9 57 9 140 0 91 4 146 10 146 6 0 10 53 10 140 0 87
4 140 10 140 6 0 10 14 10 30 l0 30 80 0 80 0 0 -30z m1380 20 c0 -5 9 -10 20
-10 11 0 20 -4 20 -10 0 -5 8 -10 18 -10 10 0 24 -9 32 -20 8 -11 20 -20 28
-20 17 0 42 -25 42 -42 0 -8 9 -20 20 -28 11 -8 20 -22 20 -32 0 -10 5 -18 10
-18 6 0 10 -9 10 -20 0 -11 5 -20 10 -20 6 0 10 -13 10 -30 0 -16 5 -30 10
-30 6 0 10 -53 10 -140 0 -87 -4 -140 -10 -140 -5 0 -10 -13 -10 -30 0 -16 -4
-30 -10 -30 -5 0 -10 -14 -10 -31 0 -17 -4 -28 -10 -24 -5 3 -10 -1 -10 -9 0
-9 -4 -16 -10 -16 -5 0 -10 -7 -10 -16 0 -19 -72 -90 -100 -99 -11 -4 -20 -11
-20 -16 0 -5 -9 -9 -20 -9 -11 0 -20 -4 -20 -10 0 -5 -13 -10 -30 -10 -16 0
-30 -4 -30 -10 0 -6 -40 -10 -100 -10 -60 0 -100 4 -100 10 0 6 -13 10 -30 10
-16 0 -30 5 -30 10 0 6 -9 10 -20 10 -11 0 -20 5 -20 10 0 6 -7 10 -15 10 -17
0 -105 84 -105 100 0 6 -9 20 -20 32 -11 12 -20 32 -20 45 0 13 -4 23 -10 23
-5 0 -10 14 -10 30 0 17 -4 30 -10 30 -6 0 -10 50 -10 130 0 80 4 130 10 130
6 0 10 14 10 30 0 17 5 30 10 30 6 0 10 10 10 23 0 13 9 33 20 45 11 12 20 26
20 32 0 15 87 100 103 100 7 0 19 9 27 20 10 14 16 16 22 7 6 -9 8 -9 8 1 0 6
9 12 20 12 11 0 20 5 20 10 0 6 50 10 130 10 80 0 130 -4 130 -10z m800 0 c0
-5 14 -10 30 -10 17 0 30 -4 30 -10 0 -5 7 -10 15 -10 20 0 85 -65 85 -85 0
-8 5 -15 10 -15 6 0 10 -33 10 -80 0 -47 -4 -80 -10 -80 -5 0 -10 -7 -10 -15
0 -20 -65 -85 -85 -85 -8 0 -15 -4 -15 -10 0 -5 8 -10 18 -10 10 0 24 -9 32
-20 8 -11 22 -20 32 -20 11 0 18 -7 18 -18 0 -10 9 -24 20 -32 11 -8 20 -25
20 -37 0 -13 5 -23 10 -23 6 0 10 -28 10 -65 0 -37 -4 -65 -10 -65 -5 0 -10
-9 -10 -20 0 -11 -4 -20 -10 -20 -5 0 -10 -7 -10 -15 0 -20 -65 -85 -85 -85
-8 0 -15 -4 -15 -10 0 -5 -9 -10 -20 -10 -11 0 -20 -4 -20 -10 0 -5 -22 -10
-50 -10 -27 0 -50 -4 -50 -10 0 -6 -43 -10 -110 -10 -81 0 -110 3 -110 13 0 8
-4 7 -10 -3 -6 -10 -10 -11 -10 -2 0 6 -9 12 -20 12 -20 0 -20 7 -20 430 0
423 0 430 20 430 11 0 20 5 20 10 0 6 57 10 150 10 93 0 150 -4 150 -10z m540
-430 l0 -440 -70 0 -70 0 0 425 c0 327 3 429 13 440 7 9 33 14 70 15 l57 0 0
-440z m366 426 c12 -12 14 -78 14 -390 l0 -376 180 0 180 0 0 -50 0 -50 -250
0 -250 0 0 440 0 440 56 0 c35 0 61 -5 70 -14z m1020 0 c8 -8 14 -28 14 -44 0
-63 4 -62 -186 -62 l-174 0 0 -130 0 -130 170 0 170 0 0 -50 0 -50 -170 0
-170 0 0 -150 0 -150 190 0 190 0 0 -50 0 -50 -260 0 -260 0 0 425 c0 327 3
429 13 440 18 21 452 22 473 1z m954 4 c0 -5 14 -10 30 -10 17 0 30 -4 30 -10
0 -5 14 -10 30 -10 17 0 30 -4 30 -10 0 -5 7 -10 15 -10 20 0 125 -105 125
-125 0 -8 5 -15 10 -15 6 0 10 -9 10 -20 0 -11 5 -20 10 -20 6 0 10 -13 10
-30 0 -16 5 -30 10 -30 6 0 10 -50 10 -130 0 -80 -4 -130 -10 -130 -5 0 -10
-13 -10 -30 0 -16 -4 -30 -10 -30 -5 0 -10 -13 -10 -28 0 -16 -8 -34 -20 -42
-11 -8 -20 -20 -20 -28 0 -17 -65 -82 -82 -82 -8 0 -20 -9 -28 -20 -8 -11 -22
-20 -32 -20 -10 0 -18 -4 -18 -10 0 -5 -13 -10 -29 -10 -17 0 -33 -4 -36 -10
-3 -5 -31 -10 -61 -10 -30 0 -54 -4 -54 -10 0 -6 -47 -10 -120 -10 -73 0 -120
4 -120 10 0 6 -13 10 -30 10 l-30 0 0 430 c0 423 0 430 20 430 11 0 20 5 20
10 0 6 67 10 180 10 113 0 180 -4 180 -10z m1000 -50 l0 -60 -180 0 -180 0 0
-130 0 -130 170 0 170 0 0 -50 0 -50 -170 0 -170 0 0 -150 0 -150 190 0 190 0
0 -50 0 -50 -250 0 -250 0 0 440 0 440 240 0 240 0 0 -60z m266 46 c8 -8 14
-31 14 -50 0 -20 5 -36 10 -36 6 0 10 -13 10 -30 0 -16 5 -30 10 -30 6 0 10
-13 10 -30 0 -16 5 -30 10 -30 6 0 10 -13 10 -30 0 -16 5 -30 10 -30 6 0 10
-13 10 -30 0 -16 5 -30 10 -30 6 0 10 -13 10 -29 0 -17 5 -33 10 -36 6 -3 10
-22 10 -41 0 -19 5 -34 10 -34 6 0 10 -13 10 -30 0 -16 5 -30 10 -30 6 0 10
-13 10 -30 0 -16 5 -30 10 -30 6 0 10 -16 10 -36 0 -31 18 -64 34 -64 3 0 6
18 6 40 0 22 5 40 10 40 6 0 10 14 10 30 0 17 5 30 10 30 6 0 10 14 10 30 0
17 5 30 10 30 6 0 10 14 10 30 0 17 5 30 10 30 6 0 10 14 10 30 0 17 5 30 10
30 6 0 10 14 10 30 0 17 5 30 10 30 6 0 10 14 10 30 0 17 5 30 10 30 6 0 10
14 10 30 0 17 5 30 10 30 6 0 10 11 10 24 0 14 5 28 10 31 6 3 10 15 10 26 0
10 5 19 10 19 6 0 10 14 10 30 0 17 5 30 10 30 6 0 10 9 10 20 0 18 7 20 70
20 63 0 70 -2 70 -20 0 -11 -4 -20 -10 -20 -5 0 -10 -13 -10 -30 0 -16 -4 -30
-10 -30 -5 0 -10 -13 -10 -30 0 -16 -4 -30 -10 -30 -5 0 -10 -9 -10 -20 0 -11
-4 -20 -10 -20 -5 0 -10 -13 -10 -30 0 -16 -4 -30 -10 -30 -5 0 -10 -13 -10
-30 0 -16 -4 -30 -10 -30 -5 0 -10 -13 -10 -30 0 -16 -4 -30 -10 -30 -5 0 -10
-9 -10 -20 0 -11 -4 -20 -10 -20 -5 0 -10 -13 -10 -30 0 -16 -4 -30 -10 -30
-5 0 -10 -13 -10 -30 0 -16 -4 -30 -10 -30 -5 0 -10 -13 -10 -30 0 -16 -4 -30
-10 -30 -5 0 -10 -13 -10 -30 0 -16 -4 -30 -10 -30 -5 0 -10 -9 -10 -20 0 -11
-4 -20 -10 -20 -5 0 -10 -13 -10 -30 0 -16 -4 -30 -10 -30 -5 0 -10 -13 -10
-30 0 -16 -4 -30 -10 -30 -5 0 -10 -13 -10 -30 l0 -30 -80 0 c-73 0 -80 2 -80
20 0 11 -4 20 -10 20 -5 0 -10 14 -10 30 0 17 -4 30 -10 30 -5 0 -10 13 -10
29 0 17 -4 33 -10 36 -5 3 -10 17 -10 31 0 13 -4 24 -10 24 -5 0 -10 14 -10
30 0 17 -4 30 -10 30 -5 0 -10 14 -10 30 0 17 -4 30 -10 30 -5 0 -10 18 -10
40 0 22 -4 40 -10 40 -5 0 -10 14 -10 30 0 17 -4 30 -10 30 -5 0 -10 14 -10
30 0 17 -4 30 -10 30 -5 0 -10 14 -10 30 0 17 -4 30 -10 30 -5 0 -10 14 -10
30 0 17 -4 30 -10 30 -5 0 -10 14 -10 30 0 17 -4 30 -10 30 -5 0 -10 14 -10
30 0 17 -4 30 -10 30 -5 0 -10 14 -10 30 0 17 -4 30 -10 30 -5 0 -10 9 -10 20
0 18 7 20 66 20 43 0 70 -5 80 -14z m854 -426 l0 -440 -60 0 -60 0 0 440 0
440 60 0 60 0 0 -440z m820 430 c0 -5 9 -10 20 -10 17 0 20 -7 20 -40 0 -22
-4 -40 -10 -40 -5 0 -10 -9 -10 -20 0 -13 -7 -20 -20 -20 -11 0 -20 5 -20 10
0 6 -18 10 -40 10 -22 0 -40 5 -40 10 0 6 -27 10 -60 10 -33 0 -60 -4 -60 -10
0 -5 -18 -10 -40 -10 -22 0 -40 -4 -40 -10 0 -5 -9 -10 -20 -10 -11 0 -20 -4
-20 -10 0 -5 -7 -10 -15 -10 -19 0 -65 -44 -65 -62 0 -8 -9 -20 -20 -28 -12
-8 -20 -26 -20 -42 0 -15 -4 -28 -10 -28 -6 0 -10 -50 -10 -130 0 -80 4 -130
10 -130 6 0 10 -13 10 -28 0 -16 8 -34 20 -42 11 -8 20 -20 20 -28 0 -17 25
-42 42 -42 8 0 20 -9 28 -20 8 -12 26 -20 42 -20 15 0 28 -4 28 -10 0 -6 47
-10 120 -10 73 0 120 4 120 10 0 15 49 12 66 -4 18 -19 18 -73 0 -92 -8 -8
-31 -14 -50 -14 -20 0 -36 -4 -36 -10 0 -6 -47 -10 -120 -10 -73 0 -120 4
-120 10 0 6 -18 10 -40 10 -22 0 -40 5 -40 10 0 6 -9 10 -20 10 -11 0 -20 5
-20 10 0 6 -7 10 -15 10 -9 0 -40 25 -70 55 -30 30 -55 61 -55 70 0 8 -4 15
-10 15 -5 0 -10 9 -10 20 0 11 -4 20 -10 20 -5 0 -10 14 -10 30 0 17 -4 30
-10 30 -6 0 -10 57 -10 150 0 93 4 150 10 150 6 0 10 9 10 20 0 11 5 20 10 20
6 0 10 9 10 20 0 11 5 20 10 20 6 0 10 8 10 18 0 10 9 24 20 32 11 8 20 20 20
28 0 17 24 42 40 42 7 0 25 14 40 30 15 17 35 30 44 30 9 0 16 5 16 10 0 6 14
10 30 10 17 0 30 5 30 10 0 6 60 10 160 10 100 0 160 -4 160 -10z m706 -4 c8
-8 14 -34 14 -60 l0 -46 -180 0 -180 0 0 -130 0 -130 170 0 170 0 0 -50 0 -50
-170 0 -170 0 0 -150 0 -150 190 0 190 0 0 -50 0 -50 -260 0 -260 0 0 425 c0
327 3 429 13 440 18 21 452 22 473 1z m899 4 c3 -5 20 -10 36 -10 18 0 28 -4
24 -10 -5 -9 24 -15 48 -11 5 1 6 -3 2 -9 -3 -5 -1 -10 5 -10 16 0 60 -47 60
-65 0 -8 5 -15 10 -15 6 0 10 -40 10 -100 0 -60 -4 -100 -10 -100 -5 0 -10 -7
-10 -15 0 -19 -61 -81 -97 -100 -25 -13 -25 -15 -7 -22 24 -9 44 -28 44 -42 0
-6 5 -11 10 -11 6 0 10 -7 10 -15 0 -8 5 -15 10 -15 6 0 10 -13 10 -30 0 -16
5 -30 10 -30 6 0 10 -18 10 -39 0 -22 5 -43 10 -46 6 -3 10 -22 10 -41 0 -19
5 -34 10 -34 6 0 10 -15 10 -34 0 -19 5 -38 10 -41 26 -16 4 -25 -60 -25 -63
0 -70 2 -70 20 0 11 -4 20 -10 20 -5 0 -10 18 -10 40 0 22 -4 40 -10 40 -5 0
-10 18 -10 40 0 22 -4 40 -10 40 -5 0 -10 16 -10 35 0 19 -4 35 -10 35 -5 0
-10 5 -10 10 0 6 -16 26 -35 45 -34 34 -36 35 -120 35 l-85 0 0 -180 0 -180
-60 0 -60 0 0 430 0 430 25 0 c14 0 25 5 25 10 0 6 55 10 144 10 86 0 147 -4
151 -10z m889 -6 c3 -9 6 -36 6 -60 l0 -44 -180 0 -180 0 0 -130 0 -130 170 0
170 0 0 -50 0 -50 -170 0 -170 0 0 -150 0 -150 190 0 190 0 0 -50 0 -50 -260
0 -260 0 0 425 c0 327 3 429 13 440 10 12 56 14 243 15 202 0 233 -2 238 -16z
m546 6 c0 -5 14 -10 30 -10 17 0 30 -4 30 -10 0 -5 9 -10 20 -10 11 0 20 -4
20 -10 0 -5 7 -10 16 -10 18 0 34 -15 53 -52 8 -16 18 -28 23 -28 4 0 8 -13 8
-30 0 -16 5 -30 10 -30 6 0 10 -27 10 -60 0 -33 -4 -60 -10 -60 -5 0 -10 -13
-10 -30 0 -16 -4 -30 -10 -30 -5 0 -10 -7 -10 -15 0 -20 -85 -105 -105 -105
-8 0 -15 -4 -15 -10 0 -5 -9 -10 -20 -10 -11 0 -20 -4 -20 -10 0 -6 -43 -10
-110 -10 l-110 0 0 -170 0 -170 -70 0 -70 0 0 430 0 430 25 0 c14 0 25 5 25
10 0 6 55 10 145 10 90 0 145 -4 145 -10z m666 -4 c8 -8 14 -22 14 -30 0 -9 5
-16 10 -16 6 0 10 -13 10 -30 0 -16 5 -30 10 -30 6 0 10 -13 10 -30 0 -16 5
-30 10 -30 6 0 10 -13 10 -30 0 -16 5 -30 10 -30 6 0 10 -13 10 -30 0 -16 5
-30 10 -30 6 0 10 -13 10 -30 0 -16 5 -30 10 -30 6 0 10 -13 10 -30 0 -16 5
-30 10 -30 6 0 10 -9 10 -19 0 -11 5 -23 10 -26 6 -3 10 -22 10 -41 0 -21 4
-33 10 -29 6 4 10 -5 10 -19 0 -14 6 -26 13 -26 8 0 7 -4 -3 -10 -10 -6 -11
-10 -2 -10 7 0 12 -13 12 -30 0 -16 5 -30 10 -30 6 0 10 -9 10 -19 0 -11 5
-23 10 -26 6 -3 10 -17 10 -31 0 -13 5 -24 10 -24 6 0 10 -13 10 -30 0 -16 5
-30 10 -30 6 0 10 -13 10 -30 l0 -30 -70 0 -70 0 0 30 c0 17 -4 30 -10 30 -5
0 -10 14 -10 30 0 17 -4 30 -10 30 -5 0 -10 11 -10 25 0 14 -4 25 -10 25 -5 0
-10 14 -10 31 0 54 -13 59 -174 59 -139 0 -146 -1 -146 -20 0 -11 -6 -20 -12
-20 -9 0 -8 -4 2 -10 10 -6 11 -10 3 -10 -7 0 -13 -9 -13 -20 0 -11 -4 -20
-10 -20 -5 0 -10 -18 -10 -41 0 -24 -4 -38 -10 -34 -6 4 -10 -7 -10 -25 0 -48
-19 -60 -94 -60 -37 0 -66 4 -66 10 0 6 5 10 10 10 6 0 10 14 10 30 0 17 5 30
10 30 6 0 10 14 10 30 0 17 5 30 10 30 6 0 10 14 10 30 0 17 5 30 10 30 6 0
10 14 10 30 0 17 5 30 10 30 6 0 10 12 10 26 0 14 4 23 10 19 6 -4 10 7 10 24
0 18 5 31 13 31 8 0 7 4 -3 10 -10 6 -11 10 -2 10 6 0 12 9 12 20 0 11 5 20
10 20 6 0 10 13 10 29 0 17 5 33 10 36 6 3 10 17 10 31 0 13 5 24 10 24 6 0
10 14 10 30 0 17 5 30 10 30 6 0 10 14 10 30 0 17 5 30 10 30 6 0 10 14 10 30
0 17 5 30 10 30 6 0 10 14 10 30 0 17 5 30 10 30 6 0 10 14 10 30 0 17 5 30
10 30 6 0 10 9 10 20 0 18 7 20 66 20 43 0 70 -5 80 -14z m594 -426 l0 -440
-60 0 -60 0 0 440 0 440 60 0 60 0 0 -440z m600 430 c0 -5 14 -10 30 -10 17 0
30 -4 30 -10 0 -5 7 -10 15 -10 26 0 105 -86 105 -115 0 -14 5 -25 10 -25 6 0
10 -30 10 -70 0 -40 -4 -70 -10 -70 -5 0 -10 -9 -10 -20 0 -11 -4 -20 -10 -20
-5 0 -10 -8 -10 -18 0 -17 -31 -47 -44 -43 -4 1 -18 -10 -32 -24 l-25 -25 40
-39 c23 -22 41 -49 41 -61 0 -12 4 -19 8 -16 4 2 9 -12 10 -32 2 -20 7 -38 12
-40 6 -2 10 -21 10 -43 0 -21 5 -39 10 -39 6 0 10 -18 10 -40 0 -22 5 -40 10
-40 6 0 10 -13 10 -30 l0 -30 -64 0 c-68 0 -76 6 -76 56 0 14 -4 22 -10 19 -6
-4 -10 10 -10 34 0 22 -4 43 -10 46 -5 3 -10 24 -10 46 0 21 -4 39 -10 39 -5
0 -10 10 -10 23 0 25 -69 109 -71 86 0 -10 -2 -11 -6 -1 -3 8 -30 12 -84 12
l-79 0 0 -180 0 -180 -70 0 -70 0 0 430 0 430 30 0 c17 0 30 5 30 10 0 6 57
10 150 10 93 0 150 -4 150 -10z"/>
<path d="M11340 8950 l0 -360 320 0 c207 0 320 4 320 10 0 6 33 10 80 10 47 0
80 4 80 10 0 6 27 10 60 10 33 0 60 4 60 10 0 6 18 10 40 10 22 0 40 5 40 10
0 6 14 10 30 10 17 0 30 5 30 10 0 6 7 10 15 10 20 0 145 125 145 145 0 8 5
15 10 15 13 0 14 217 1 222 -5 2 -11 14 -13 28 -3 28 -100 130 -123 130 -8 0
-15 5 -15 10 0 6 -13 10 -30 10 -16 0 -30 5 -30 10 0 6 -13 10 -30 10 -16 0
-30 5 -30 10 0 6 -30 10 -70 10 -40 0 -70 4 -70 10 0 7 -143 10 -410 10 l-410
0 0 -360z"/>
<path d="M2520 5780 c0 -5 -11 -10 -25 -10 -28 0 -135 -99 -135 -125 0 -8 -4
-15 -10 -15 -5 0 -10 -13 -10 -30 0 -16 -4 -30 -10 -30 -6 0 -10 -50 -10 -130
0 -80 4 -130 10 -130 6 0 10 -10 10 -23 0 -13 9 -33 20 -45 11 -12 20 -26 20
-32 0 -16 67 -80 85 -80 8 0 15 -4 15 -10 0 -5 18 -10 40 -10 22 0 40 -4 40
-10 0 -5 9 -10 20 -10 11 0 20 5 20 10 0 6 18 10 40 10 22 0 40 5 40 10 0 6 7
10 15 10 20 0 85 65 85 85 0 8 5 15 10 15 6 0 10 9 10 21 0 11 5 17 10 14 6
-4 10 6 10 24 0 16 5 33 10 36 6 4 10 57 10 126 0 73 -4 119 -10 119 -5 0 -10
14 -10 30 0 17 -4 30 -10 30 -5 0 -10 7 -10 15 0 26 -107 125 -135 125 -14 0
-25 5 -25 10 0 6 -27 10 -60 10 -33 0 -60 -4 -60 -10z"/>
<path d="M3320 5779 c0 -5 -4 -7 -10 -4 -6 4 -10 -42 -10 -129 l0 -136 60 0
c33 0 60 4 60 10 0 6 16 10 35 10 27 0 44 8 70 35 19 19 35 41 35 50 0 8 5 15
10 15 6 0 10 9 10 20 0 11 -4 20 -10 20 -5 0 -10 11 -10 25 0 33 -42 75 -75
75 -14 0 -25 5 -25 10 0 6 -30 10 -70 10 -43 0 -70 -4 -70 -11z"/>
<path d="M3300 5260 l0 -150 100 0 c60 0 100 4 100 10 0 6 7 10 15 10 20 0 65
45 65 65 0 8 5 15 10 15 6 0 10 23 10 50 0 28 -4 50 -10 50 -5 0 -10 7 -10 15
0 20 -45 65 -65 65 -8 0 -15 5 -15 10 0 6 -40 10 -100 10 l-100 0 0 -150z"/>
<path d="M6180 5780 c0 -5 -13 -10 -30 -10 l-30 0 0 -330 0 -330 120 0 c73 0
120 4 120 10 0 6 13 10 28 10 16 0 34 8 42 19 7 11 17 18 21 16 10 -7 69 50
69 67 0 7 9 20 20 28 12 8 20 26 20 42 0 15 5 28 10 28 6 0 10 50 10 130 0 80
-4 130 -10 130 -5 0 -10 9 -10 20 0 11 -4 20 -10 20 -5 0 -10 7 -10 15 0 9
-16 31 -35 50 -19 19 -41 35 -50 35 -8 0 -15 5 -15 10 0 6 -9 10 -20 10 -11 0
-20 5 -20 10 0 6 -22 10 -50 10 -27 0 -50 5 -50 10 0 6 -27 10 -60 10 -33 0
-60 -4 -60 -10z"/>
<path d="M10760 5780 c0 -5 -9 -10 -20 -10 -19 0 -20 -7 -20 -140 l0 -140 105
0 c63 0 105 4 105 10 0 6 5 10 10 10 17 0 60 47 60 65 0 8 5 15 10 15 6 0 10
23 10 50 0 28 -4 50 -10 50 -5 0 -10 7 -10 16 0 20 -24 44 -44 44 -9 0 -16 5
-16 10 0 6 -13 10 -30 10 -16 0 -30 5 -30 10 0 6 -27 10 -60 10 -33 0 -60 -4
-60 -10z"/>
<path d="M12198 5776 c-16 -12 -18 -32 -18 -170 l0 -156 80 0 c47 0 80 4 80
10 0 6 9 10 20 10 11 0 20 5 20 10 0 6 7 10 16 10 20 0 44 24 44 44 0 9 5 16
10 16 6 0 10 30 10 70 0 40 -4 70 -10 70 -5 0 -10 7 -10 16 0 20 -24 44 -44
44 -9 0 -16 5 -16 10 0 6 -13 10 -30 10 -16 0 -30 5 -30 10 0 15 -102 12 -122
-4z"/>
<path d="M12960 5690 c0 -22 -4 -40 -10 -40 -5 0 -10 -13 -10 -30 0 -16 -4
-30 -10 -30 -5 0 -10 -13 -10 -30 0 -16 -4 -30 -10 -30 -5 0 -10 -13 -10 -30
0 -16 -4 -30 -10 -30 -5 0 -10 -13 -10 -30 0 -16 -4 -30 -10 -30 -5 0 -10 -4
-10 -10 0 -6 43 -10 110 -10 103 0 110 1 110 20 0 11 -4 20 -10 20 -5 0 -10
14 -10 30 0 17 -4 30 -10 30 -5 0 -10 14 -10 30 0 17 -4 30 -10 30 -5 0 -10
14 -10 30 0 17 -4 30 -10 30 -5 0 -10 14 -10 30 0 17 -4 30 -10 30 -5 0 -10
14 -10 30 0 17 -4 30 -10 30 -5 0 -10 -18 -10 -40z"/>
<path d="M14033 5775 c-9 -10 -13 -55 -13 -150 l0 -135 100 0 c60 0 100 4 100
10 0 6 7 10 16 10 20 0 44 24 44 44 0 9 5 16 10 16 6 0 10 28 10 65 0 62 -2
68 -35 100 -21 22 -44 35 -60 35 -14 0 -25 5 -25 10 0 16 -133 12 -147 -5z"/>
</g>
</svg>
